<?xml version="1.0" standalone="no"?><svg xmlns="http://www.w3.org/2000/svg" viewBox="0 0 1440 320"><path fill="#198754" fill-opacity="1" d="M0,128L24,112C48,96,96,64,144,74.7C192,85,240,139,288,170.7C336,203,384,213,432,208C480,203,528,181,576,149.3C624,117,672,75,720,90.7C768,107,816,181,864,186.7C912,192,960,128,1008,117.3C1056,107,1104,149,1152,160C1200,171,1248,149,1296,165.3C1344,181,1392,235,1416,261.3L1440,288L1440,0L1416,0C1392,0,1344,0,1296,0C1248,0,1200,0,1152,0C1104,0,1056,0,1008,0C960,0,912,0,864,0C816,0,768,0,720,0C672,0,624,0,576,0C528,0,480,0,432,0C384,0,336,0,288,0C240,0,192,0,144,0C96,0,48,0,24,0L0,0Z"></path></svg>